<svg width="512" height="512" viewBox="0 0 512 512" fill="none" xmlns="http://www.w3.org/2000/svg">
  <rect width="512" height="512" rx="128" fill="#1A1A1A"/>
  <path d="M256 96C194.4 96 144 146.4 144 208C144 269.6 194.4 320 256 320C317.6 320 368 269.6 368 208C368 146.4 317.6 96 256 96ZM256 288C212 288 176 252 176 208C176 164 212 128 256 128C300 128 336 164 336 208C336 252 300 288 256 288Z" fill="#C5A47E"/>
  <path d="M256 160C229.6 160 208 181.6 208 208C208 234.4 229.6 256 256 256C282.4 256 304 234.4 304 208C304 181.6 282.4 160 256 160ZM256 224C247.2 224 240 216.8 240 208C240 199.2 247.2 192 256 192C264.8 192 272 199.2 272 208C272 216.8 264.8 224 256 224Z" fill="#5A0B0D"/>
  <path d="M256 352C194.4 352 144 402.4 144 464H368C368 402.4 317.6 352 256 352ZM256 384C300 384 336 420 336 464H176C176 420 212 384 256 384Z" fill="#C5A47E"/>
</svg> 